<svg width="204" height="239" viewBox="0 0 204 239" fill="none" xmlns="http://www.w3.org/2000/svg">
<g clip-path="url(#clip0_20_34)">
<path d="M85.9146 8.88353L14.772 50.7965C5.61869 56.1891 0 66.0206 0 76.6443V159.492C0 169.857 5.3503 179.487 14.1506 184.963L85.2994 229.235C94.9221 235.222 107.098 235.276 116.773 229.373L189.624 184.928C198.553 179.481 204 169.777 204 159.318V76.8157C204 66.0999 198.284 56.1978 189.005 50.838L116.148 8.75367C106.783 3.34446 95.2324 3.39408 85.9146 8.88353Z" fill="#313131"/>
<g clip-path="url(#clip1_20_34)">
<path d="M124.566 177.366C129.549 177.357 131.28 184.336 129.126 184.336C126.98 184.336 119.607 184.355 118.356 184.355C117.106 184.355 117.298 181.772 117.5 179.338C117.702 176.914 113.96 153.158 113.19 150.806C112.43 148.459 108.082 150.926 89.843 151.061C71.5943 151.171 67.6597 145.977 67.5443 149.858C67.4241 153.745 65.2837 158.492 66.1927 161.085C67.097 163.668 68.665 175.606 70.0166 177.722C73.5904 177.347 75.9087 183.836 73.5952 183.836C71.2768 183.836 65.5434 183.937 64.389 183.937C63.2298 183.937 63.807 180.94 63.8984 179.228C63.9994 177.52 60.4497 168.069 58.6845 165.466C56.9288 162.874 56.3709 149.459 56.3709 149.459C56.3709 149.459 44.9089 161.267 44.5914 163.148C44.2788 165.029 44.5481 178.775 44.5481 180.228C48.3095 180.613 49.9881 185.846 48.1556 185.846C46.323 185.846 40.0364 185.995 38.6368 185.995C37.2226 185.995 37.7325 180.724 38.1173 179.685C38.4925 178.631 36.1067 167.265 36.1067 162.528C36.1067 157.78 44.9474 144.5 44.9474 140.744C44.9474 136.992 41.9364 129.354 42.3933 121.504C43.0859 109.758 50.32 103.799 61.8205 103.702C83.4074 103.51 82.6282 111.99 103.647 108.714C128.707 104.809 146.047 100.422 141.949 88.8254C141.949 88.8254 139.727 84.2319 140.246 81.8221C140.766 79.4172 141.949 78.1714 141.949 78.1714C141.949 78.1714 110.997 54.1075 91.2331 49.6342C93.6381 43.4487 122.695 56.3393 122.695 56.3393C122.695 56.3393 116.168 46.883 95.7111 40.8658C117.543 33.4729 147.115 75.9396 147.115 75.9396C147.115 75.9396 164.897 82.4907 177.807 106.906C178.494 113.616 174.983 115.068 171.496 114.159C168.014 113.25 165.286 110.254 161.03 111.062C157.254 111.769 141.838 131.951 142.074 135.597C142.314 139.233 146.648 155.366 147.35 157.665C148.231 160.56 145.96 167.078 146.013 168.574C146.061 170.07 147.307 170.238 148.13 172.83C148.947 175.413 148.697 179.964 145.224 180.743C142.579 178.092 139.938 175.461 138.837 174.36C137.735 173.259 140.357 171.426 140.511 170.709C140.65 169.997 141.328 161.878 139.602 158.588C137.856 155.303 129.756 144.457 129.756 144.457C129.756 144.457 122.541 154.731 122.839 160.286C123.262 164.043 124.094 176.226 124.566 177.366Z" fill="#CBAE51" stroke="#CBAE51" stroke-width="2.10845"/>
</g>
</g>
<defs>
<clipPath id="clip0_20_34">
<rect width="204" height="239" fill="white"/>
</clipPath>
<clipPath id="clip1_20_34">
<rect width="146" height="146" fill="white" transform="translate(34 40)"/>
</clipPath>
</defs>
</svg>
