<svg width="204" height="239" viewBox="0 0 204 239" fill="none" xmlns="http://www.w3.org/2000/svg">
<g clip-path="url(#clip0_21_103)">
<path d="M85.9146 8.88353L14.772 50.7965C5.61869 56.1891 0 66.0206 0 76.6443V159.492C0 169.857 5.3503 179.487 14.1506 184.963L85.2994 229.235C94.9221 235.222 107.098 235.276 116.773 229.373L189.624 184.928C198.553 179.481 204 169.777 204 159.318V76.8157C204 66.0999 198.284 56.1978 189.005 50.838L116.148 8.75367C106.783 3.34446 95.2324 3.39408 85.9146 8.88353Z" fill="#313131"/>
<path d="M96.054 60.7076C91.6723 60.6924 87.4447 63.0859 85.6097 67.5947V69.941L82.8545 69.3356C79.3874 68.5678 76.608 69.0571 74.7715 70.2663C72.9345 71.4758 71.8231 73.39 71.7817 76.4271C71.7502 78.7375 72.2492 80.2585 72.9474 81.2708C73.6454 82.2832 74.5635 82.8867 75.8309 83.2233C78.3654 83.8966 82.29 83.1369 85.7833 81.1042L87.2287 80.2638L88.4549 81.3919C90.4905 83.2674 91.969 84.0729 93.4343 84.3587C94.9 84.6445 96.5938 84.4357 99.1111 83.6624L101.495 82.9281L101.994 85.3725C102.647 88.5592 105.605 91.0414 109.048 91.0414C112.254 91.0414 114.781 88.8549 115.663 85.8421L116.2 84.0179L118.085 84.2221C120.23 84.4619 122.786 83.2425 124.14 81.7172L125.593 80.0824L127.28 81.4827C131.788 85.2335 135.868 85.5902 138.732 84.2601C141.594 82.9296 143.619 79.755 143.394 74.8676C143.181 70.308 140.737 67.4935 137.218 66.1944C133.699 64.8953 129.042 65.3201 124.798 68.1847L122.997 69.4034L121.703 67.6475C119.999 65.3262 117.564 63.8972 115.232 63.5303C112.9 63.1632 110.755 63.7551 109.087 65.5662L107.293 67.5109L105.651 65.4378C103.122 62.2494 99.5444 60.7197 96.054 60.7076ZM50.7955 85.0548C44.1547 105.321 41.2446 126.009 41.9779 147.109C51.5564 151.281 61.6973 151.493 71.8728 151.468C72.4427 148.786 72.976 146.009 73.4698 143.18C65.6951 143.587 57.947 143.791 50.6283 140.971C50.0641 124.773 52.3036 111.515 57.4096 95.6742C64.0257 97.2484 70.7323 97.7594 77.5717 97.4826C77.5548 94.6454 77.478 92.0198 77.3223 89.6575C68.3206 89.2395 59.4989 87.5645 50.7955 85.056V85.0548ZM86.6392 85.774C85.048 86.5708 83.4012 87.1836 81.7494 87.5677C82.4983 95.6703 82.221 106.553 81.22 118.348C80.0631 131.979 77.8618 146.563 74.8171 158.725H140.17C137.765 145.995 135.614 131.695 134.456 118.348C133.518 107.542 133.188 97.4918 133.964 89.3538C131.354 89.0433 128.625 87.9874 125.987 86.1521C124.171 87.6023 121.881 88.6091 119.387 88.7556C117.581 92.6904 113.715 95.5671 109.049 95.5671C104.291 95.5671 100.127 92.6948 98.3093 88.5587C96.3088 89.0152 94.4359 89.1659 92.5646 88.8009C90.489 88.3965 88.5762 87.3444 86.639 85.7736L86.6392 85.774ZM67.6575 163.251L63.147 174.975H150.016L144.756 163.251H67.658H67.6575Z" fill="#CBAE51" stroke="#CBAE51" stroke-width="0.125"/>
</g>
<defs>
<clipPath id="clip0_21_103">
<rect width="204" height="239" fill="white"/>
</clipPath>
</defs>
</svg>
