<svg width="204" height="239" viewBox="0 0 204 239" fill="none" xmlns="http://www.w3.org/2000/svg">
<g clip-path="url(#clip0_21_92)">
<path d="M85.9146 8.88353L14.772 50.7965C5.61869 56.1891 0 66.0206 0 76.6443V159.492C0 169.857 5.3503 179.487 14.1506 184.963L85.2994 229.235C94.9221 235.222 107.098 235.276 116.773 229.373L189.624 184.928C198.553 179.481 204 169.777 204 159.318V76.8157C204 66.0999 198.284 56.1978 189.005 50.838L116.148 8.75367C106.783 3.34446 95.2324 3.39408 85.9146 8.88353Z" fill="#313131"/>
<g clip-path="url(#clip1_21_92)">
<path d="M106.999 57.8516L144.647 51.5776L143.72 46L102.192 52.9216L94.7504 91.6123L100.302 92.6801L106.999 57.8516Z" fill="#CBAE51" stroke="#CBAE51" stroke-width="0.124283"/>
<path d="M59.353 109.111H66.2717L68.9716 136.919C71.282 136.166 73.9988 135.585 76.9002 135.585C79.1607 135.585 81.3477 135.938 83.3935 136.631C90.469 139.029 95.7632 145.375 99.1358 155.492C101.724 163.256 105.126 167.194 109.254 167.194C114.805 167.119 121.38 160.256 125.406 153.436L129.176 109.111H135.701V95.9153H59.353V109.111Z" fill="#CBAE51" stroke="#CBAE51" stroke-width="0.124283"/>
<path d="M109.345 172.813L109.166 172.818C102.41 172.818 97.244 167.587 93.8076 157.272C91.0181 148.909 86.91 143.758 81.5883 141.952C80.1405 141.461 78.5739 141.212 76.9333 141.212C74.1842 141.212 71.5929 141.9 69.5339 142.679L73.1835 180.231C73.2403 181.227 74.067 182 75.0645 182H121.248C122.253 182 123.082 181.21 123.131 180.206L124.49 164.223C120.184 169.02 114.887 172.737 109.345 172.813Z" fill="#CBAE51" stroke="#CBAE51" stroke-width="0.124283"/>
</g>
</g>
<defs>
<clipPath id="clip0_21_92">
<rect width="204" height="239" fill="white"/>
</clipPath>
<clipPath id="clip1_21_92">
<rect width="136" height="136" fill="white" transform="translate(34 46)"/>
</clipPath>
</defs>
</svg>
