<svg width="204" height="239" viewBox="0 0 204 239" fill="none" xmlns="http://www.w3.org/2000/svg">
<g clip-path="url(#clip0_22_150)">
<path d="M85.9146 8.88353L14.772 50.7965C5.61869 56.1891 0 66.0206 0 76.6443V159.492C0 169.857 5.3503 179.487 14.1506 184.963L85.2994 229.235C94.9221 235.222 107.098 235.276 116.773 229.373L189.624 184.928C198.553 179.481 204 169.777 204 159.318V76.8157C204 66.0999 198.284 56.1978 189.005 50.838L116.148 8.75367C106.783 3.34446 95.2324 3.39408 85.9146 8.88353Z" fill="#313131"/>
<path d="M142.188 165.875C142.188 166.903 142.364 167.902 142.716 168.812H45.25H30.5625C25.7031 168.812 21.75 164.859 21.75 160V89.5C21.75 84.6406 25.7031 80.6875 30.5625 80.6875H32.1884C28.9575 77.84 26.884 74.1461 27.8673 70.4062C29.606 63.7969 36.4375 62.1445 36.4375 57.1875C41.8429 60.0292 45.25 65.0273 45.25 70.4062C45.25 74.2485 43.4882 77.8811 40.5247 80.6875H45.25C50.1094 80.6875 54.0625 84.6406 54.0625 89.5V126.131C64.4194 109.435 82.897 98.3125 104 98.3125C114.693 98.3125 124.709 101.162 133.375 106.156V115.938C133.375 127.834 140.337 138.262 151 142.845V151.188H45.5463C45.9701 146.916 46.8994 142.801 48.1875 138.848V98.3125H46.7188C44.2806 98.3125 42.3125 100.281 42.3125 102.719V108.594C42.3125 111.032 40.3444 113 37.9062 113C35.4681 113 33.5 111.032 33.5 108.594V99.7812C33.5 97.3431 31.5319 95.375 29.0938 95.375H27.625V160C27.625 161.621 28.9417 162.938 30.5625 162.938H39.375C39.375 159.706 42.0187 157.062 45.25 157.062H143.774C141.928 160.266 142.188 162.732 142.188 165.875ZM186.25 89.5C186.25 100.423 186.25 106.431 186.25 115.966C186.25 126.636 179.071 135.937 168.625 138.65V157.062H171.562C174.794 157.062 177.438 159.706 177.438 162.938V165.875C177.438 167.491 176.116 168.812 174.5 168.812H151C149.384 168.812 148.062 167.491 148.062 165.875V162.938C148.062 159.706 150.706 157.062 153.938 157.062H156.875V138.648C145.82 135.773 139.25 126.22 139.25 115.938C139.25 110.112 139.25 129.588 139.25 89.5C139.25 84.6406 143.203 80.6875 148.062 80.6875H177.438C182.297 80.6875 186.25 84.6406 186.25 89.5ZM145.125 89.5V105.213C151.626 101.015 160.08 101.616 164.56 104.316C171.32 108.405 175.016 113.845 180.375 112.616V89.5C180.375 87.8792 179.058 86.5625 177.438 86.5625H148.062C146.442 86.5625 145.125 87.8792 145.125 89.5ZM101.897 97.4257C103.05 98.6081 104.95 98.6081 106.103 97.4257L113.429 89.9131C116.006 87.2708 116.509 83.0291 114.202 80.1485C111.578 76.8724 106.85 76.6958 104 79.619C101.149 76.6962 96.4209 76.8728 93.7977 80.1485C91.4907 83.0291 91.9937 87.2712 94.5703 89.9131L101.897 97.4257Z" fill="#CBAE51" stroke="#CBAE51" stroke-width="0.125"/>
</g>
<defs>
<clipPath id="clip0_22_150">
<rect width="204" height="239" fill="white"/>
</clipPath>
</defs>
</svg>
