<svg width="204" height="239" viewBox="0 0 204 239" fill="none" xmlns="http://www.w3.org/2000/svg">
<g clip-path="url(#clip0_21_77)">
<path d="M85.9146 8.88353L14.772 50.7965C5.61869 56.1891 0 66.0206 0 76.6443V159.492C0 169.857 5.3503 179.487 14.1506 184.963L85.2994 229.235C94.9221 235.222 107.098 235.276 116.773 229.373L189.624 184.928C198.553 179.481 204 169.777 204 159.318V76.8157C204 66.0999 198.284 56.1978 189.005 50.838L116.148 8.75367C106.783 3.34446 95.2324 3.39408 85.9146 8.88353Z" fill="#313131"/>
<g clip-path="url(#clip1_21_77)">
<path fill-rule="evenodd" clip-rule="evenodd" d="M98.2069 101.553C88.0567 92.2477 72.1447 96.5018 58.6815 95.0037C60.8806 88.0129 63.819 80.3978 67.0552 72.3506C69.9169 65.2253 69.9457 65.2349 75.2656 66.3776C76.2451 66.5889 77.3591 66.8289 78.4826 67.0498L96.2095 70.5453C97.1026 70.7949 97.7652 71.1886 98.2165 71.7168C98.6774 72.2546 98.9751 72.9652 99.1192 73.8582C99.0327 76.451 98.9943 79.3223 98.9559 82.3184C98.8791 88.3874 98.7927 95.0422 98.2069 101.553ZM125.133 177.099C123.395 177.435 121.715 176.292 121.379 174.554C121.043 172.816 122.185 171.135 123.923 170.799L137.435 168.187L131.663 139.974C129.695 140.166 127.803 140.137 126.007 139.888C122.051 139.34 118.555 137.756 115.511 135.163C107.07 127.99 103.786 116.284 102.461 104.069C101.136 116.274 97.8516 127.98 89.4107 135.163C86.357 137.756 82.8615 139.34 78.9147 139.888C77.119 140.137 75.2368 140.166 73.2586 139.974L67.0936 170.137L80.0767 172.652C81.8148 172.989 82.9575 174.669 82.6214 176.407C82.2853 178.145 80.6048 179.288 78.8667 178.952L46.4571 172.681C44.7189 172.345 43.5762 170.665 43.9123 168.927C44.2484 167.188 45.9289 166.046 47.667 166.382L60.7941 168.917L66.9784 138.697C66.7479 138.63 66.5174 138.553 66.2774 138.476C66.239 138.466 66.2005 138.457 66.1621 138.437C53.4767 134.308 49.3955 125.301 50.2598 112.942C51.0664 101.361 56.396 86.8413 62.8876 70.6797C67.1704 60.0397 67.2088 60.0493 76.1971 61.9795C77.071 62.1716 78.0697 62.3828 79.3373 62.6325L97.1026 66.1375C97.1506 66.1471 97.1986 66.1567 97.2466 66.1663C99.1 66.6561 100.54 67.5396 101.616 68.7879C101.933 69.1624 102.211 69.5562 102.461 69.9787C102.701 69.5562 102.989 69.1528 103.306 68.7879C104.382 67.5396 105.832 66.6561 107.675 66.1663C107.723 66.1567 107.771 66.1471 107.819 66.1375L125.585 62.6325C126.852 62.3828 127.851 62.1716 128.725 61.9795C137.713 60.0493 137.751 60.0397 142.025 70.6797C148.526 86.8413 153.846 101.361 154.653 112.942C155.517 125.291 151.436 134.308 138.75 138.437C138.712 138.447 138.673 138.457 138.635 138.476C138.404 138.553 138.164 138.62 137.934 138.697L143.715 166.977L156.323 164.538C158.062 164.202 159.742 165.345 160.078 167.083C160.414 168.821 159.272 170.501 157.533 170.838L125.133 177.099ZM115.012 118.166C114.753 117.503 115.079 116.764 115.742 116.505C116.404 116.245 117.144 116.572 117.403 117.234C119.045 121.412 121.321 124.485 124.144 126.597C126.958 128.691 130.348 129.853 134.237 130.189C134.947 130.246 135.466 130.87 135.408 131.581C135.351 132.292 134.727 132.81 134.016 132.753C129.656 132.368 125.825 131.053 122.608 128.662C119.41 126.261 116.846 122.814 115.012 118.166ZM106.811 102.609C121.398 96.0313 136.522 88.9347 144.291 89.1748C142.418 83.8452 140.219 78.2083 137.867 72.3506C135.005 65.2253 134.976 65.2349 129.656 66.3776C128.677 66.5889 127.563 66.8289 126.439 67.0498L108.722 70.5453C107.829 70.7949 107.166 71.1886 106.715 71.7168C106.254 72.2546 105.956 72.9652 105.812 73.8582C105.899 76.451 105.937 79.3223 105.976 82.3184C106.043 88.7139 106.129 95.7624 106.811 102.609ZM90.6014 112.375C90.6975 111.674 91.3504 111.185 92.0515 111.29C92.7525 111.386 93.2422 112.039 93.1366 112.74C92.4164 117.676 90.7167 121.623 88.1335 124.686C85.5503 127.759 82.1221 129.92 77.9737 131.283C77.3015 131.504 76.5716 131.139 76.3508 130.467C76.1299 129.795 76.4948 129.065 77.167 128.844C80.8833 127.625 83.9178 125.723 86.1745 123.035C88.4504 120.346 89.9484 116.831 90.6014 112.375Z" fill="#CBAE51" stroke="#CBAE51" stroke-width="0.520833"/>
</g>
</g>
<defs>
<clipPath id="clip0_21_77">
<rect width="204" height="239" fill="white"/>
</clipPath>
<clipPath id="clip1_21_77">
<rect width="118" height="118" fill="white" transform="translate(43 61)"/>
</clipPath>
</defs>
</svg>
