<svg width="204" height="239" viewBox="0 0 204 239" fill="none" xmlns="http://www.w3.org/2000/svg">
<g clip-path="url(#clip0_18_16)">
<path d="M85.9146 8.88353L14.772 50.7965C5.61869 56.1891 0 66.0206 0 76.6443V159.492C0 169.857 5.3503 179.487 14.1506 184.963L85.2994 229.235C94.9221 235.222 107.098 235.276 116.773 229.373L189.624 184.928C198.553 179.481 204 169.777 204 159.318V76.8157C204 66.0999 198.284 56.1978 189.005 50.838L116.148 8.75367C106.783 3.34446 95.2324 3.39408 85.9146 8.88353Z" fill="#313131"/>
<g clip-path="url(#clip1_18_16)">
<path d="M188.056 90.5891L170.063 71.8184L177.894 66.8238L178.351 62.9312L174.719 62.7146L165.298 69.4905L153.543 69.5007L146.347 65.1068L143.769 65.633L143.807 68.4896L148.446 73.6271L147.834 76.3257L93.2445 82.1966L36.6989 80.6175L30.6055 83.1718L26.1171 88.8752L23.8078 102.216L23.3999 111.805L22.0002 120.76L22.3849 129.679L23.9591 130.001L26.2473 127.481L28.1076 119.113L26.5998 107.504L27.1243 107.425L30.6687 125.098L28.2544 140.436L30.4587 171.048L30.6687 174.438L32.8168 176.27L42.3149 176.285L45.3754 175.359L36.8779 161.521L41.0935 143.948L43.3014 143.952L51.0048 167.317L54.9757 173.315L56.9346 174.521L67.4191 174.529L68.7644 172.845L59.6883 167.27L53.5345 148.318L55.0771 145.241L58.692 145.577L60.9617 151.134L64.2494 145.717L67.4349 151.158L70.1332 145.251L78.0754 139.146L106.258 136.447L110.989 142.23L114.975 170.501L117.073 174.563L126.676 174.559L127.711 173.037L121.874 164.913L121.173 149.443L124.325 151.193L127.645 161.469L131.867 174.812L133.76 176.28L142.352 176.285L143.065 174.345L140.554 172.02L132.452 156.187L134.319 139.593L143.398 132.878L156.623 108.314L171.844 101.287L185.841 99.6936L187.041 98.3926L189 92.8717L188.056 90.5891Z" fill="#CBAE51" stroke="#CBAE51" stroke-width="0.13454"/>
</g>
</g>
<defs>
<clipPath id="clip0_18_16">
<rect width="204" height="239" fill="white"/>
</clipPath>
<clipPath id="clip1_18_16">
<rect width="167" height="167" fill="white" transform="translate(22 36)"/>
</clipPath>
</defs>
</svg>
