<svg width="204" height="239" viewBox="0 0 204 239" fill="none" xmlns="http://www.w3.org/2000/svg">
<g clip-path="url(#clip0_20_46)">
<path d="M85.9146 8.88353L14.772 50.7965C5.61869 56.1891 0 66.0206 0 76.6443V159.492C0 169.857 5.3503 179.487 14.1506 184.963L85.2994 229.235C94.9221 235.222 107.098 235.276 116.773 229.373L189.624 184.928C198.553 179.481 204 169.777 204 159.318V76.8157C204 66.0999 198.284 56.1978 189.005 50.838L116.148 8.75367C106.783 3.34446 95.2324 3.39408 85.9146 8.88353Z" fill="#313131"/>
<g clip-path="url(#clip1_20_46)">
<path d="M168.49 88.4662C165.852 72.0879 153.014 59.4945 136.542 57.1248C133.133 56.6382 129.635 56.6217 126.172 57.059C121.367 56.4595 116.532 56.7181 111.936 57.8912C102.276 60.3431 92.0407 60.3455 82.3858 57.8888C77.5689 56.664 72.4888 56.4031 67.4603 57.1248C51.1549 59.4662 38.3405 71.9022 35.5736 88.0689C33.4837 100.281 37.1557 112.337 45.6469 121.143C50.5719 126.251 53.2848 132.739 53.2848 139.411V166.194C53.2848 174.509 60.0505 181.275 68.3654 181.275H124.905H134.581C142.899 181.275 149.664 174.509 149.664 166.194V140.453C149.664 133.586 152.563 126.916 157.824 121.672C166.593 112.929 170.481 100.829 168.49 88.4662ZM48.8323 96.687C48.2305 96.687 47.6287 96.4567 47.1703 95.9982C46.2511 95.0791 46.2511 93.5933 47.1703 92.6742L73.0295 66.815C73.9486 65.8958 75.4344 65.8958 76.3535 66.815C77.2727 67.7341 77.2727 69.2199 76.3535 70.139L50.4944 95.9982C50.0359 96.4567 49.4341 96.687 48.8323 96.687ZM56.3714 113.63C55.913 114.088 55.3112 114.318 54.7094 114.318C54.1076 114.318 53.5058 114.088 53.0474 113.63C52.1282 112.71 52.1282 111.225 53.0474 110.305L88.3099 75.0429C89.2291 74.1237 90.7148 74.1237 91.634 75.0429C92.5532 75.9621 92.5532 77.4478 91.634 78.367L56.3714 113.63ZM60.0999 126.761L118.871 67.9904C119.79 67.0712 121.276 67.0712 122.195 67.9904C123.114 68.9096 123.114 70.3953 122.195 71.3145L63.424 130.085C62.9655 130.544 62.3637 130.774 61.7619 130.774C61.1601 130.774 60.5583 130.544 60.0999 130.085C59.183 129.166 59.183 127.68 60.0999 126.761ZM62.9373 155.458C62.3355 155.458 61.7337 155.228 61.2753 154.769C60.3561 153.85 60.3561 152.364 61.2753 151.445L136.502 76.2183C137.421 75.2991 138.907 75.2991 139.826 76.2183C140.745 77.1375 140.745 78.6232 139.826 79.5424L64.5994 154.769C64.141 155.228 63.5391 155.458 62.9373 155.458ZM69.9898 171.914C69.388 171.914 68.7862 171.683 68.3278 171.225C67.4086 170.306 67.4086 168.82 68.3278 167.901L143.555 92.6742C144.474 91.755 145.959 91.755 146.879 92.6742C147.798 93.5933 147.798 95.0791 146.879 95.9982L71.6519 171.225C71.1935 171.683 70.5917 171.914 69.9898 171.914ZM93.4982 171.914C92.8964 171.914 92.2946 171.683 91.8362 171.225C90.917 170.306 90.917 168.82 91.8362 167.901L127.099 132.638C128.018 131.719 129.504 131.719 130.423 132.638C131.342 133.558 131.342 135.043 130.423 135.962L95.1602 171.225C94.7018 171.683 94.1 171.914 93.4982 171.914ZM114.656 174.265C114.054 174.265 113.452 174.034 112.994 173.576C112.074 172.657 112.074 171.171 112.994 170.252L127.099 156.147C128.018 155.228 129.504 155.228 130.423 156.147C131.342 157.066 131.342 158.552 130.423 159.471L116.318 173.576C115.859 174.034 115.258 174.265 114.656 174.265ZM154.505 118.341C148.35 124.474 144.963 132.326 144.963 140.45V166.192C144.963 171.462 141.013 175.828 135.919 176.486C136.034 176.362 136.138 176.225 136.25 176.098C136.392 175.938 136.533 175.779 136.667 175.612C136.829 175.407 136.982 175.196 137.134 174.984C137.259 174.812 137.386 174.641 137.501 174.464C137.647 174.243 137.781 174.013 137.915 173.783C138.021 173.602 138.129 173.425 138.228 173.24C138.354 173 138.467 172.751 138.583 172.504C138.67 172.316 138.761 172.132 138.841 171.942C138.947 171.686 139.036 171.42 139.13 171.157C139.198 170.964 139.271 170.778 139.33 170.583C139.415 170.301 139.483 170.014 139.551 169.725C139.596 169.539 139.65 169.356 139.687 169.166C139.753 168.839 139.796 168.505 139.84 168.171C139.861 168.014 139.894 167.859 139.908 167.699C139.958 167.203 139.986 166.7 139.986 166.19V140.453C139.986 136.16 141.119 131.945 143.251 128.106C144.532 125.802 146.173 123.635 148.146 121.667C156.914 112.927 160.803 100.825 158.811 88.4638C158.623 87.2978 158.37 86.1553 158.08 85.0292C157.991 84.6813 157.883 84.3428 157.784 83.9972C157.561 83.2144 157.316 82.4433 157.046 81.6863C156.912 81.3126 156.773 80.9435 156.628 80.5768C156.334 79.8315 156.014 79.1004 155.675 78.3787C155.527 78.0614 155.386 77.7416 155.229 77.4266C154.752 76.4816 154.244 75.5577 153.691 74.6597C153.654 74.5986 153.623 74.5351 153.586 74.474C152.986 73.5101 152.335 72.5839 151.653 71.6812C151.47 71.4391 151.272 71.211 151.084 70.9736C150.567 70.3248 150.036 69.69 149.476 69.0788C149.232 68.8108 148.983 68.5499 148.731 68.2889C148.172 67.7083 147.593 67.1511 146.999 66.6081C146.754 66.3848 146.514 66.1591 146.265 65.9428C145.489 65.2728 144.688 64.6334 143.858 64.0269C143.792 63.9799 143.736 63.9234 143.67 63.8764C154.227 68.1385 161.976 77.5865 163.847 89.2137C165.596 100.065 162.19 110.679 154.505 118.341Z" fill="#CBAE51" stroke="#CBAE51" stroke-width="1.12279"/>
</g>
</g>
<defs>
<clipPath id="clip0_20_46">
<rect width="204" height="239" fill="white"/>
</clipPath>
<clipPath id="clip1_20_46">
<rect width="134" height="134" fill="white" transform="translate(35 52)"/>
</clipPath>
</defs>
</svg>
