<svg width="204" height="239" viewBox="0 0 204 239" fill="none" xmlns="http://www.w3.org/2000/svg">
<g clip-path="url(#clip0_18_10)">
<path d="M85.9146 8.88353L14.772 50.7965C5.61869 56.1891 0 66.0206 0 76.6443V159.492C0 169.857 5.3503 179.487 14.1506 184.963L85.2994 229.235C94.9221 235.222 107.098 235.276 116.773 229.373L189.624 184.928C198.553 179.481 204 169.777 204 159.318V76.8157C204 66.0999 198.284 56.1978 189.005 50.838L116.148 8.75367C106.783 3.34446 95.2324 3.39408 85.9146 8.88353Z" fill="#313131"/>
<g clip-path="url(#clip1_18_10)">
<path d="M159.553 81.5668C161.397 80.3808 163.475 79.0298 165.952 79.0298C166.64 79.0298 167.32 79.1335 168 79.3465C167.553 77.1887 165.709 75.5729 163.913 74.0008C162.378 72.6541 160.925 71.3877 160.279 69.7857L160.212 69.6122H160.214C160.214 69.6122 166.187 63.3242 162.988 57.9182C159.788 52.5133 158.42 55.3295 157.963 57.9182C157.507 60.508 152.512 53.4534 151.72 57.6904C150.926 61.9277 142.657 58.7374 144.792 63.734C144.792 63.734 145.287 64.9629 146.645 66.0886C138.846 67.2925 134.492 70.7188 130.21 77.6355C129.016 79.5648 127.199 84.0275 125.92 87.3021C119.826 102.858 115.089 104.666 106.894 104.666C103.11 104.666 99.3215 103.629 95.6244 102.014C93.8985 101.014 80.6258 93.102 77.1582 84.5173C73.4506 75.3303 57.0203 58.0131 40.0599 65.6111C23.0982 73.2098 26.3488 78.941 45.0054 84.164C62.6731 89.1105 27.8691 89.6409 40.4136 100.95C52.9568 112.255 39.3504 111.904 56.3143 125.157C72.0019 137.411 65.8465 143.516 73.7521 148.886C73.7457 148.896 73.7383 148.907 73.732 148.92C73.8822 149.017 74.0592 149.093 74.2158 149.191C74.7409 149.523 75.3171 149.856 75.9639 150.182C75.9639 150.182 76.0051 150.186 76.0136 150.186C78.2317 151.233 80.7894 151.995 83.4378 152.761C86.237 153.579 91.9601 155.203 91.9601 155.203C99.276 155.993 110.049 147.345 114.265 141.03C120.781 130.854 115.985 122.684 112.45 111.803L114.081 111.285C117.446 121.795 122.79 130.894 115.696 141.966C111.557 148.181 101.873 156.137 94.0868 156.899C94.3422 157.056 97.5089 159.091 100.286 160.601C102.919 162.032 104.84 164.508 105.572 167.415C106.174 169.808 106.974 172.141 108.037 174.335C108.607 175.512 108.626 176.882 108.081 178.071C107.539 179.261 106.498 180.154 105.234 180.493C102.995 181.099 100.651 181.948 98.8419 183.526C98.2847 184.019 98.0001 184.745 98.0805 185.482C98.163 186.219 98.5975 186.871 99.2474 187.227C100.224 187.758 101.424 187.657 102.297 186.965C104.575 185.152 108.778 184.982 112.37 183.597C113.649 183.106 115.095 183.267 116.232 184.027C116.638 184.299 117.064 184.557 117.551 184.809C119.414 185.77 120.992 187.142 122.21 188.849C122.553 189.328 122.838 189.789 123.055 190.225C123.584 191.297 124.651 192.004 125.846 192.078L127.377 192.167C127.646 192.184 127.906 192.083 128.093 191.888C128.277 191.691 128.368 191.426 128.338 191.159C128.247 190.289 127.982 189.413 127.601 188.557C127.466 188.252 127.495 187.905 127.675 187.627C127.855 187.35 128.164 187.185 128.497 187.185C134.184 187.195 138.038 188.587 140.029 189.552C141.081 190.065 142.333 189.955 143.277 189.27L143.654 188.995C144.149 188.639 144.433 188.061 144.418 187.452C144.406 186.842 144.09 186.278 143.58 185.946C138.311 182.511 129.367 182.247 124.985 181.099C117.885 179.21 114.341 170.536 114.781 164.889C114.785 164.893 114.787 164.893 114.791 164.893L114.789 164.861L115.653 164.813C121.376 164.499 124.938 159.339 128.227 154.244C134.029 145.255 136.795 145.151 136.795 145.151C151.865 143.61 160.327 131.093 162.648 106.897C163.336 99.7571 161.225 95.5159 158.986 91.0211C157.953 88.9373 156.877 86.7862 156.03 84.2673L155.748 83.4255L156.595 83.1692C157.499 82.9019 158.501 82.2516 159.553 81.5668ZM150.797 74.6063C149.63 74.6063 148.688 73.6588 148.688 72.4964C148.688 71.3317 149.635 70.3883 150.797 70.3883C151.958 70.3883 152.902 71.3338 152.902 72.4964C152.902 73.6591 151.962 74.6063 150.797 74.6063Z" fill="#CBAE51" stroke="#CBAE51" stroke-width="0.162368"/>
</g>
</g>
<defs>
<clipPath id="clip0_18_10">
<rect width="204" height="239" fill="white"/>
</clipPath>
<clipPath id="clip1_18_10">
<rect width="139" height="139" fill="white" transform="translate(29 54)"/>
</clipPath>
</defs>
</svg>
