<svg width="204" height="239" viewBox="0 0 204 239" fill="none" xmlns="http://www.w3.org/2000/svg">
<g clip-path="url(#clip0_21_86)">
<path d="M85.9146 8.88353L14.772 50.7965C5.61869 56.1891 0 66.0206 0 76.6443V159.492C0 169.857 5.3503 179.487 14.1506 184.963L85.2994 229.235C94.9221 235.222 107.098 235.276 116.773 229.373L189.624 184.928C198.553 179.481 204 169.777 204 159.318V76.8157C204 66.0999 198.284 56.1978 189.005 50.838L116.148 8.75367C106.783 3.34446 95.2324 3.39408 85.9146 8.88353Z" fill="#313131"/>
<path d="M145.902 45.48L141.852 42.726L116.742 67.674H123.546L145.902 45.48ZM126.948 134.742C126.948 131.016 126.3 127.452 125.166 124.212C125.166 124.212 125.166 124.05 125.004 124.05C125.004 123.888 125.004 123.888 124.842 123.726C123.87 121.134 119.172 108.336 119.172 96.834C119.172 87.114 124.032 74.316 124.032 74.316H74.136C76.08 69.618 80.778 67.836 87.096 67.836H104.916L110.1 62.652C98.274 50.826 78.834 50.826 67.008 62.652C55.182 74.478 55.182 93.918 67.008 105.744L80.94 91.488C81.264 93.432 81.426 95.214 81.426 96.996C81.426 108.498 76.89 121.296 75.918 123.888C75.918 124.05 75.918 124.05 75.756 124.212C75.756 124.374 75.756 124.374 75.756 124.374C74.622 127.614 73.974 131.178 73.974 134.904C73.974 144.462 78.186 154.182 84.99 160.176C86.286 161.31 87.744 162.444 89.364 163.254C96.492 169.086 95.358 172.974 95.358 179.616V181.074C95.358 185.61 94.062 188.85 90.498 188.85H86.124C81.426 188.85 77.538 192.738 77.538 197.436H123.06C123.06 192.738 119.172 188.85 114.474 188.85H110.1C106.536 188.85 105.24 185.61 105.24 181.074V179.616C105.24 172.974 104.268 169.086 111.396 163.254C113.016 162.444 114.474 161.31 115.77 160.176C122.736 154.02 126.948 144.3 126.948 134.742ZM116.418 127.452C116.256 127.452 116.094 127.614 115.77 127.614C115.122 127.614 114.474 127.29 114.312 126.642C114.15 125.994 108.642 112.386 108.642 100.884C108.642 90.354 111.072 83.712 111.072 83.388C111.396 82.578 112.368 82.092 113.178 82.416C113.988 82.74 114.474 83.712 114.15 84.522C114.15 84.522 111.882 91.002 111.882 100.884C111.882 111.738 117.39 125.346 117.39 125.508C117.714 126.156 117.228 126.966 116.418 127.452Z" fill="#CBAE51" stroke="#CBAE51" stroke-width="0.64"/>
</g>
<defs>
<clipPath id="clip0_21_86">
<rect width="204" height="239" fill="white"/>
</clipPath>
</defs>
</svg>
