<svg width="204" height="239" viewBox="0 0 204 239" fill="none" xmlns="http://www.w3.org/2000/svg">
<g clip-path="url(#clip0_21_98)">
<path d="M85.9146 8.88353L14.772 50.7965C5.61869 56.1891 0 66.0206 0 76.6443V159.492C0 169.857 5.3503 179.487 14.1506 184.963L85.2994 229.235C94.9221 235.222 107.098 235.276 116.773 229.373L189.624 184.928C198.553 179.481 204 169.777 204 159.318V76.8157C204 66.0999 198.284 56.1978 189.005 50.838L116.148 8.75367C106.783 3.34446 95.2324 3.39408 85.9146 8.88353Z" fill="#313131"/>
<g clip-path="url(#clip1_21_98)">
<path d="M77.0373 89.6221C77.3445 91.4418 78.9279 92.8125 80.8186 92.8125H84.718C87.034 92.8125 88.8773 90.8037 88.5701 88.5586C87.6721 81.8941 84.6943 75.7496 79.9205 70.9049C76.5174 67.4309 74.3432 63.0352 73.6814 58.2613C73.4215 56.3943 71.8145 55 69.8766 55H66.0008C63.6848 55 61.8887 57.0088 62.1486 59.2539C63.0703 66.7928 66.4025 73.7408 71.7436 79.2C74.5795 82.0832 76.3992 85.699 77.0373 89.6221ZM103.506 89.6221C103.813 91.4418 105.397 92.8125 107.287 92.8125H111.187C113.503 92.8125 115.346 90.8037 115.039 88.5586C114.141 81.8941 111.163 75.7496 106.389 70.9049C102.986 67.4309 100.812 63.0352 100.15 58.2613C99.8902 56.3943 98.2832 55 96.3453 55H92.4695C90.1535 55 88.3338 57.0088 88.6174 59.2539C89.5391 66.7928 92.8713 73.7408 98.2123 79.2C101.048 82.0832 102.868 85.699 103.506 89.6221ZM141.531 100.375H54.5625C50.3795 100.375 47 103.754 47 107.938V153.312C47 165.838 57.1621 176 69.6875 176H115.062C127.588 176 137.75 165.838 137.75 153.312H141.531C156.136 153.312 168 141.449 168 126.844C168 112.239 156.136 100.375 141.531 100.375ZM141.531 138.188H137.75V115.5H141.531C147.794 115.5 152.875 120.581 152.875 126.844C152.875 133.106 147.794 138.188 141.531 138.188Z" fill="#CBAE51" stroke="#CBAE51" stroke-width="0.125"/>
</g>
</g>
<defs>
<clipPath id="clip0_21_98">
<rect width="204" height="239" fill="white"/>
</clipPath>
<clipPath id="clip1_21_98">
<rect width="121" height="121" fill="white" transform="translate(47 55)"/>
</clipPath>
</defs>
</svg>
