<svg width="204" height="239" viewBox="0 0 204 239" fill="none" xmlns="http://www.w3.org/2000/svg">
<g clip-path="url(#clip0_20_52)">
<path d="M85.9146 8.88353L14.772 50.7965C5.61869 56.1891 0 66.0206 0 76.6443V159.492C0 169.857 5.3503 179.487 14.1506 184.963L85.2994 229.235C94.9221 235.222 107.098 235.276 116.773 229.373L189.624 184.928C198.553 179.481 204 169.777 204 159.318V76.8157C204 66.0999 198.284 56.1978 189.005 50.838L116.148 8.75367C106.783 3.34446 95.2324 3.39408 85.9146 8.88353Z" fill="#313131"/>
<g clip-path="url(#clip1_20_52)">
<path d="M99.4208 84.4232C111.523 84.4232 115.485 75.861 110.823 66.7966C105.422 56.3 122.572 47.2356 114.053 47.2356C105.987 47.2356 90.8896 56.0272 88.0748 66.9702C85.973 75.179 89.91 84.4232 99.4208 84.4232ZM131.735 139.919L128.982 137.545C127.473 136.286 125.569 135.597 123.604 135.597C121.638 135.597 119.735 136.286 118.225 137.545L115.485 139.913C111.732 143.131 106.949 144.893 102.006 144.879C97.0661 144.894 92.2851 143.134 88.5336 139.919L85.7808 137.539C84.2718 136.28 82.369 135.592 80.4043 135.593C78.4396 135.594 76.5376 136.285 75.03 137.545L72.2772 139.919C64.8806 146.293 53.8818 146.467 46.2124 140.539V164.8C46.2124 166.444 46.8656 168.021 48.0284 169.184C49.1911 170.347 50.7681 171 52.4124 171H151.612C153.257 171 154.834 170.347 155.996 169.184C157.159 168.021 157.812 166.444 157.812 164.8V140.546C150.143 146.46 139.144 146.305 131.735 139.919ZM102 90.4C55.0412 90.4 46.2 111.238 46.2 121.4V124.308L53.4168 130.526C54.9266 131.785 56.8299 132.474 58.7953 132.474C60.7608 132.474 62.664 131.785 64.1738 130.526L66.9266 128.152C70.686 124.954 75.4606 123.198 80.3961 123.198C85.3317 123.198 90.1062 124.954 93.8656 128.152L96.6184 130.533C99.6192 133.118 104.337 133.137 107.375 130.526L110.116 128.158C113.874 124.956 118.65 123.198 123.587 123.196C128.525 123.195 133.301 124.952 137.061 128.152L139.814 130.526C142.833 133.137 147.564 133.112 150.571 130.526L157.8 124.308V121.4C157.8 111.238 148.959 90.4 102 90.4Z" fill="#CBAE51" stroke="#CBAE51" stroke-width="3.2"/>
</g>
</g>
<defs>
<clipPath id="clip0_20_52">
<rect width="204" height="239" fill="white"/>
</clipPath>
<clipPath id="clip1_20_52">
<rect width="124" height="124" fill="white" transform="translate(40 47)"/>
</clipPath>
</defs>
</svg>
