<svg width="204" height="239" viewBox="0 0 204 239" fill="none" xmlns="http://www.w3.org/2000/svg">
<g clip-path="url(#clip0_21_108)">
<path d="M85.9146 8.88353L14.772 50.7965C5.61869 56.1891 0 66.0206 0 76.6443V159.492C0 169.857 5.3503 179.487 14.1506 184.963L85.2994 229.235C94.9221 235.222 107.098 235.276 116.773 229.373L189.624 184.928C198.553 179.481 204 169.777 204 159.318V76.8157C204 66.0999 198.284 56.1978 189.005 50.838L116.148 8.75367C106.783 3.34446 95.2324 3.39408 85.9146 8.88353Z" fill="#313131"/>
<g clip-path="url(#clip1_21_108)">
<path d="M98.5577 165.338C94.5352 161.904 92.6961 158.373 94.816 153.33C96.07 150.388 96.2572 147.011 97.3473 143.951C97.802 142.56 98.0628 140.962 98.0628 139.303C98.0628 137.645 97.802 136.043 97.3172 134.545L97.3473 134.655C96.9494 133.565 96.3207 132.639 95.5116 131.903L95.5049 131.897C91.7532 127.981 91.168 122.377 96.946 117.428C98.317 116.255 98.3069 116.255 98.0495 113.279C89.6299 113.77 81.976 110.935 74.262 106.996L72.4464 123.293H71.9548C71.3563 117.432 70.7812 111.697 70.079 105.18C69.447 104.642 68.3335 103.585 67.1365 102.649C59.5495 96.7272 52.5176 90.4544 50.1703 80.6304C49.5851 78.4369 49.3979 76.1632 48.9966 73.5718H69.0692C69.1394 74.9327 69.2096 76.4106 69.2798 77.8986C69.6911 86.375 70.099 94.8514 70.5103 103.445L72.9947 103.866C73.3224 103.492 73.7671 103.211 73.7671 102.93C73.8842 97.2656 73.8374 91.5912 74.048 85.9403C74.2085 82.8106 74.593 79.8781 75.1916 77.0225L75.128 77.3937C75.633 74.6986 77.2513 73.4782 79.923 73.2775C80.5081 73.2775 81.0966 73.2775 81.6818 73.2775H153.201C153.95 73.2775 154.713 73.3611 155.839 73.418C156.729 80.7575 153.693 86.7261 149.473 92.036C140.726 102.903 129.106 109.494 115.614 112.787C113.013 113.419 110.211 113.222 107.409 113.409C106.061 114.864 106.613 115.987 108.017 117.221C113.879 122.357 113.949 126.306 109.284 132.522C107.87 134.201 107.011 136.384 107.011 138.772C107.011 139.694 107.138 140.587 107.379 141.433L107.362 141.366C108.535 145.188 109.004 149.258 110.445 152.962C112.461 158.155 110.913 161.944 106.927 165.191C107.114 165.532 107.268 165.846 107.455 166.14C110.398 170.49 114.772 172.47 119.684 173.587C123.388 174.419 126.719 176.402 130.738 176.496C132.146 176.496 133.507 178.194 135.814 179.732H70.7544C71.8345 177.389 73.4629 176.753 75.9138 176.215C82.6682 174.633 88.4596 172.737 94.0303 170.413L93.2779 170.691C95.331 169.835 96.6885 167.304 98.5544 165.344L98.5577 165.338Z" fill="#CBAE51" stroke="#CBAE51" stroke-width="2"/>
<path d="M72.0719 128.383C73.3157 130.188 74.0614 132.425 74.0614 134.833C74.0614 135.809 73.9377 136.759 73.707 137.665L73.7237 137.585H70.9316C69.4203 134.385 71.1691 131.676 72.0719 128.383Z" fill="#CBAE51" stroke="#CBAE51" stroke-width="2"/>
</g>
</g>
<defs>
<clipPath id="clip0_21_108">
<rect width="204" height="239" fill="white"/>
</clipPath>
<clipPath id="clip1_21_108">
<rect width="107" height="107" fill="white" transform="translate(49 73)"/>
</clipPath>
</defs>
</svg>
